<?xml version="1.0" encoding="iso-8859-1"?>
<!-- Uploaded to: SVG Repo, www.svgrepo.com, Generator: SVG Repo Mixer Tools -->
<!DOCTYPE svg PUBLIC "-//W3C//DTD SVG 1.1//EN" "http://www.w3.org/Graphics/SVG/1.1/DTD/svg11.dtd">
<svg fill="#864AF9" version="1.1" id="Capa_1" xmlns="http://www.w3.org/2000/svg" xmlns:xlink="http://www.w3.org/1999/xlink" 
	 width="800px" height="800px" viewBox="0 0 187.627 187.627"
	 xml:space="preserve">
<g>
	<path d="M116.465,69.923C97.441,62.069,61.25,55.537,52.761,81.688c-10.047,30.953,51.301,48.946,69.083,57.363
		c6.232,2.95,11.694-6.321,5.429-9.287c-21.14-10.006-53.996-17.031-63.55-41.14C56.71,70.927,94.379,73.925,100.634,75.42
		c13.057,3.12,26.076,10.684,37.901,16.894c11.288,5.926,21.853,13.109,30.622,22.4c23.496,24.894-8.068,46.636-31.833,42.834
		c-20.92-3.348-41.415-11.664-60.402-20.733C45.466,121.792-25.372,69.376,30.033,35.622c36.726-22.374,84.118,18.733,117.228,29.89
		c2.396,0.807,3.471-2.187,2.211-3.798C121.862,26.379,24.193-7.548,3.258,51.285c-21.938,61.65,72.479,100.529,116.938,113.175
		c26.266,7.47,59.653,6.407,66.659-25.889C194.659,102.592,141.315,80.18,116.465,69.923z"/>
</g>
</svg>