<svg xmlns="http://www.w3.org/2000/svg"  viewBox="0 0 100 100" width="100px" height="100px"><path d="M 74 12 C 72.901469 12 72 12.901469 72 14 C 72 15.098531 72.901469 16 74 16 L 81.183594 16 L 51.597656 45.585938 C 50.821878 46.361714 50.821223 47.632976 51.595703 48.410156 A 0.50005 0.50005 0 0 0 51.595703 48.412109 L 51.597656 48.414062 C 52.374386 49.193444 53.651556 49.194101 54.429688 48.416016 L 84 18.826172 L 84 26 C 84 27.098531 84.901469 28 86 28 C 87.098531 28 88 27.098531 88 26 L 88 12.5 A 0.50005 0.50005 0 0 0 87.5 12 L 74 12 z M 74 13 L 87 13 L 87 26 C 87 26.557469 86.557469 27 86 27 C 85.442531 27 85 26.557469 85 26 L 85 17.619141 A 0.50005 0.50005 0 0 0 84.146484 17.265625 L 53.722656 47.708984 C 53.326788 48.104853 52.701911 48.105604 52.306641 47.708984 A 0.50005 0.50005 0 0 0 52.304688 47.707031 L 52.302734 47.705078 C 51.909262 47.310258 51.910418 46.687191 52.304688 46.292969 L 82.744141 15.853516 A 0.50005 0.50005 0 0 0 82.390625 15 L 74 15 C 73.442531 15 73 14.557469 73 14 C 73 13.442531 73.442531 13 74 13 z M 29 19 C 22.384534 19 17 24.384534 17 31 L 17 71 C 17 77.615466 22.384534 83 29 83 L 69 83 C 75.615466 83 81 77.615466 81 71 L 81 31 C 81 29.87289 80.844175 28.780011 80.552734 27.744141 A 1.0001662 1.0001662 0 1 0 78.626953 28.285156 C 78.869512 29.147286 79 30.05711 79 31 L 79 71 C 79 76.534534 74.534534 81 69 81 L 29 81 C 23.465466 81 19 76.534534 19 71 L 19 31 C 19 25.465466 23.465466 21 29 21 L 69 21 C 69.978407 21 70.921603 21.139751 71.8125 21.400391 A 1.0003133 1.0003133 0 1 0 72.375 19.480469 C 71.303897 19.167108 70.169593 19 69 19 L 29 19 z M 29 24 C 25.148119 24 22 27.148119 22 31 L 22 71 C 22 74.851881 25.148119 78 29 78 L 69 78 C 72.851881 78 76 74.851881 76 71 L 76 53 A 0.50005 0.50005 0 1 0 75 53 L 75 71 C 75 74.308119 72.308119 77 69 77 L 29 77 C 25.691881 77 23 74.308119 23 71 L 23 31 C 23 27.691881 25.691881 25 29 25 L 64.5 25 A 0.50005 0.50005 0 1 0 64.5 24 L 29 24 z M 75.492188 40.992188 A 0.50005 0.50005 0 0 0 75 41.5 L 75 43.5 A 0.50005 0.50005 0 1 0 76 43.5 L 76 41.5 A 0.50005 0.50005 0 0 0 75.492188 40.992188 z M 75.492188 44.992188 A 0.50005 0.50005 0 0 0 75 45.5 L 75 49.5 A 0.50005 0.50005 0 1 0 76 49.5 L 76 45.5 A 0.50005 0.50005 0 0 0 75.492188 44.992188 z"/></svg>